<?xml version="1.0" encoding="utf-8"?>
<!-- Generator: Adobe Illustrator 23.0.0, SVG Export Plug-In . SVG Version: 6.00 Build 0)  -->
<svg version="1.1" id="Layer_1" xmlns="http://www.w3.org/2000/svg" xmlns:xlink="http://www.w3.org/1999/xlink" x="0px" y="0px"
	 viewBox="0 0 195 173" style="enable-background:new 0 0 195 173;" xml:space="preserve">
<style type="text/css">
	.st0{fill:#4D4949;}
	.st1{fill:#FFFFFF;}
	.st2{fill:#818181;}
	.st3{fill:#D8D8D8;}
	.st4{fill-rule:evenodd;clip-rule:evenodd;fill:#D8D8D8;}
	.st5{fill-rule:evenodd;clip-rule:evenodd;fill:#DEEE23;}
</style>
<g>
	<title>F9D1FE0E-99B2-42B2-9928-E633C879F835</title>
	<desc>Created with sketchtool.</desc>
</g>
<g>
	<path class="st0" d="M145.1,45.7h5.1c-0.2,0.5-0.1,1.1,0.3,1.4l1.2,0.8c0.1,0.1,0.3,0.1,0.4,0.1c0.3,0,0.6-0.2,0.8-0.5
		c0.2-0.5,0.1-1.2-0.3-1.5l-0.6-0.4h19.2l-0.5,0.9c-0.2,0.4-0.1,1,0.3,1.3c0.5,0.3,1.1,0.2,1.4-0.3l0.8-1.3c0.1-0.2,0.1-0.4,0.1-0.6
		h12.6c0.5,0,1-0.4,1-1V28.3c0-0.5-0.4-1-1-1c-0.5,0-1,0.4-1,1v15.5h-37.5l-1.1-0.7c-0.1,0-0.1-0.1-0.2-0.1v-8c0-0.5-0.4-1-1-1
		s-1,0.4-1,1v9.7C144.2,45.3,144.6,45.7,145.1,45.7z"/>
	<path class="st0" d="M163.1,6c-0.2,0.5-0.1,1.2,0.3,1.5l1.2,0.9c0.1,0.1,0.3,0.1,0.4,0.1c0.3,0,0.6-0.2,0.8-0.5
		c0.2-0.5,0.1-1.2-0.3-1.5l-1.2-0.8C163.9,5.3,163.4,5.5,163.1,6z"/>
	<path class="st0" d="M173.4,43.1c0.2,0.1,0.3,0.1,0.5,0.1c0.4,0,0.7-0.2,0.9-0.4l0.8-1.2c0.3-0.4,0.1-1-0.4-1.2
		c-0.5-0.2-1.2-0.1-1.5,0.3l-0.8,1.2C172.8,42.3,172.9,42.8,173.4,43.1z"/>
	<path class="st0" d="M167.1,9c-0.2,0.5-0.1,1.2,0.3,1.5l1.2,0.8c0.1,0.1,0.3,0.1,0.4,0.1c0.3,0,0.6-0.2,0.8-0.5
		c0.2-0.5,0.1-1.2-0.3-1.5l-1.2-0.8C167.9,8.3,167.3,8.5,167.1,9z"/>
	<path class="st0" d="M174,14.4c0.3,0,0.6-0.2,0.8-0.5c0.2-0.5,0.1-1.2-0.3-1.5l-1.2-0.8c-0.4-0.3-1-0.1-1.2,0.4
		c-0.2,0.5-0.1,1.2,0.3,1.5l1.2,0.8C173.7,14.4,173.9,14.4,174,14.4z"/>
	<path class="st0" d="M155.2,48.7c-0.2,0.5-0.1,1.2,0.3,1.5l1.2,0.8c0.1,0.1,0.3,0.1,0.4,0.1c0.3,0,0.6-0.2,0.8-0.5
		c0.2-0.5,0.1-1.2-0.3-1.5l-1.2-0.8C156,48,155.4,48.2,155.2,48.7z"/>
	<path class="st0" d="M168.9,50.6l-0.9,1.2c-0.3,0.4-0.1,0.9,0.3,1.1c0.5,0.3,1.2,0.2,1.6-0.3l0.9-1.2c0.3-0.4,0.1-1-0.4-1.2
		S169.2,50.1,168.9,50.6z"/>
	<path class="st0" d="M185.8,22.9l0.9-1.2c0.3-0.4,0.1-1-0.4-1.2c-0.5-0.2-1.2-0.1-1.5,0.3L184,22c-0.3,0.4-0.1,1,0.4,1.2
		c0.2,0.1,0.4,0.1,0.5,0.1C185.2,23.3,185.6,23.2,185.8,22.9z"/>
	<path class="st0" d="M179.7,16.9c0.2-0.5,0.1-1.2-0.3-1.5l-1.2-0.8c-0.4-0.3-1-0.1-1.2,0.4c-0.2,0.5-0.1,1.2,0.3,1.5l1.2,0.8
		c0.1,0.1,0.3,0.1,0.4,0.1C179.3,17.4,179.6,17.2,179.7,16.9z"/>
	<path class="st0" d="M159.1,51.6c-0.2,0.5-0.1,1.2,0.3,1.5l1.2,0.8c0.1,0.1,0.3,0.1,0.4,0.1c0.3,0,0.6-0.2,0.8-0.5
		c0.2-0.5,0.1-1.2-0.3-1.5l-1.2-0.8C159.9,51,159.4,51.1,159.1,51.6z"/>
	<path class="st0" d="M165.7,54.6l-0.5-0.4c-0.4-0.3-0.9-0.1-1.1,0.4c-0.2,0.5-0.1,1.2,0.3,1.5l1.1,0.8c0.1,0.1,0.3,0.1,0.4,0.1
		c0.3,0,0.6-0.2,0.7-0.5l0.2-0.5c0.2-0.5,0.1-1.2-0.3-1.5C166.3,54.4,166,54.4,165.7,54.6z"/>
	<path class="st0" d="M131.6,34.4c-0.4-0.3-1-0.1-1.2,0.4c-0.2,0.5-0.1,1.2,0.3,1.5l1.2,0.8c0.1,0.1,0.3,0.1,0.4,0.1
		c0.3,0,0.6-0.2,0.8-0.5c0.2-0.5,0.1-1.2-0.3-1.5L131.6,34.4z"/>
	<path class="st0" d="M134.7,30.4c-0.5-0.2-1.2-0.1-1.5,0.3l-0.9,1.2c-0.3,0.4-0.1,1,0.4,1.2c0.5,0.2,1.2,0.1,1.5-0.3l0.8-1.2
		C135.4,31.2,135.2,30.6,134.7,30.4z"/>
	<path class="st0" d="M138.7,23.2c0.5,0.2,1.2,0.1,1.5-0.3l0.9-1.2c0.3-0.4,0.1-1-0.4-1.2c-0.5-0.2-1.2-0.1-1.5,0.3l-0.8,1.2
		C138.1,22.4,138.2,23,138.7,23.2z"/>
	<path class="st0" d="M141.5,40.3c-0.4-0.3-1-0.1-1.2,0.4c-0.2,0.5-0.1,1.2,0.3,1.5l1.2,0.8c0.1,0.1,0.3,0.1,0.4,0.1
		c0.3,0,0.6-0.2,0.8-0.5c0.2-0.5,0.1-1.2-0.3-1.5L141.5,40.3z"/>
	<path class="st0" d="M135.8,28.2c0.5,0.2,1.2,0.1,1.5-0.3l0.9-1.2c0.3-0.4,0.1-1-0.4-1.2c-0.5-0.2-1.2-0.1-1.5,0.3l-0.8,1.2
		C135.1,27.4,135.3,27.9,135.8,28.2z"/>
	<path class="st0" d="M137.3,40.2c0.3,0,0.6-0.2,0.8-0.5c0.2-0.5,0.1-1.2-0.3-1.5l-1.2-0.8c-0.4-0.3-1-0.1-1.2,0.4
		c-0.2,0.5-0.1,1.2,0.3,1.5l1.2,0.8C137,40.1,137.2,40.2,137.3,40.2z"/>
	<path class="st0" d="M140.7,18.3c0.5,0.2,1.2,0.1,1.5-0.3l0.8-1.2c0.3-0.4,0.1-1-0.4-1.2c-0.5-0.2-1.2-0.1-1.5,0.3l-0.8,1.2
		C140,17.5,140.2,18,140.7,18.3z"/>
	<path class="st0" d="M182.4,28.2c0.2,0.1,0.3,0.1,0.5,0.1c0.4,0,0.7-0.2,0.9-0.4l0.8-1.2c0.3-0.4,0.1-1-0.4-1.2
		c-0.5-0.2-1.2-0.1-1.5,0.3L182,27C181.7,27.4,181.9,27.9,182.4,28.2z"/>
	<path class="st0" d="M183.5,20.2c0.1,0.1,0.3,0.1,0.4,0.1c0.3,0,0.6-0.2,0.8-0.5c0.2-0.5,0.1-1.2-0.3-1.5l-1.2-0.9
		c-0.4-0.3-1-0.1-1.2,0.4c-0.2,0.5-0.1,1.2,0.3,1.5L183.5,20.2z"/>
	<path class="st0" d="M179.4,33.1c0.2,0.1,0.3,0.1,0.5,0.1c0.4,0,0.7-0.2,0.9-0.4l0.8-1.2c0.3-0.4,0.1-1-0.4-1.2
		c-0.5-0.2-1.2-0.1-1.5,0.3l-0.8,1.2C178.7,32.4,178.9,32.9,179.4,33.1z"/>
	<path class="st0" d="M144.6,13.3c0.1,0,0.1,0.1,0.2,0.1v16.9c0,0.5,0.4,1,0.9,1s0.9-0.4,0.9-1V11.6c0.1-0.3,0.1-0.6,0-0.8V8.4
		c0.2,0.1,0.3,0.1,0.5,0.1c0.4,0,0.7-0.2,0.9-0.4l0.8-1.2c0.3-0.4,0.1-1-0.4-1.2c-0.5-0.2-1.2-0.1-1.5,0.3l-0.4,0.6V4.9h11.6
		c0.1,0.1,0.2,0.2,0.3,0.2l1.3,0.8c0.1,0.1,0.3,0.1,0.5,0.1c0.3,0,0.6-0.2,0.8-0.5c0.1-0.2,0.1-0.4,0.1-0.6h23.6v11.2
		c0,0.5,0.4,1,0.9,1c0.5,0,0.9-0.4,0.9-1V3.9c0-0.5-0.4-1-0.9-1h-29.7c0.1-0.1,0.2-0.2,0.2-0.3c0.3-0.5,0.1-1-0.3-1.3l-1.3-0.8
		c-0.4-0.3-1-0.1-1.3,0.3c-0.3,0.5-0.1,1,0.3,1.3L155,3h-3.3l0.6-1c0.3-0.5,0.1-1-0.3-1.3c-0.4-0.3-1-0.1-1.3,0.3l-0.8,1.3
		c-0.1,0.2-0.1,0.4-0.1,0.6h-3.9c-0.5,0-0.9,0.4-0.9,1v7.2l-0.5,0.9C144,12.5,144.2,13.1,144.6,13.3z"/>
	<path class="st0" d="M176.9,35.7l-0.8,1.2c-0.3,0.4-0.1,1,0.4,1.2c0.2,0.1,0.3,0.1,0.5,0.1c0.4,0,0.7-0.2,0.9-0.4l0.8-1.2
		c0.3-0.4,0.1-1-0.4-1.2C177.8,35.1,177.2,35.3,176.9,35.7z"/>
	<path class="st0" d="M155.1,21.4c0.5,0,0.9-0.4,0.9-0.9v-2.2c1.4-0.3,2.5-1.5,2.9-2.9h2.2c0.5,0,0.9-0.4,0.9-0.9
		c0-0.5-0.4-0.9-0.9-0.9h-2.2c-0.3-1.4-1.5-2.5-2.9-2.9V8.4c0-0.5-0.4-0.9-0.9-0.9c-0.5,0-0.9,0.4-0.9,0.9v2.2
		c-1.4,0.3-2.5,1.5-2.9,2.9h-2.2c-0.5,0-0.9,0.4-0.9,0.9c0,0.5,0.4,0.9,0.9,0.9h2.2c0.3,1.4,1.5,2.5,2.9,2.9v2.2
		C154.1,20.9,154.5,21.4,155.1,21.4z M153,14.4c0-1.1,0.9-2.1,2.1-2.1c1.1,0,2.1,0.9,2.1,2.1s-0.9,2.1-2.1,2.1
		C153.9,16.5,153,15.6,153,14.4z"/>
	<path class="st0" d="M193.8,31.3c-0.5,0-0.9,0.4-0.9,1c0,16.4-13.2,29.8-29.4,29.8c-9.5,0-18.4-4.6-23.9-12.4h5.7
		c0.5,0,0.9-0.4,0.9-1c0-0.5-0.4-1-0.9-1h-8.1c-0.5,0-0.9,0.4-0.9,1v8.2c0,0.5,0.4,1,0.9,1c0.5,0,0.9-0.4,0.9-1v-6
		C144,59.1,153.4,64,163.5,64c8.4,0,16.2-3.3,22.1-9.3c5.9-6,9.2-14,9.2-22.5C194.7,31.7,194.3,31.3,193.8,31.3z"/>
</g>
<g>
	<title>A5B40C8D-0DAF-45A0-A6D4-92A008775348</title>
	<desc>Created with sketchtool.</desc>
</g>
<g>
	<path class="st1" d="M32.2,130.1c-1.4-1.5-3.6-1.5-5,0l-4.3,4.5c-1.4,1.6-1.4,3.8,0,5.4c0.1,0.1,0.3,0.2,0.4,0.3l1.5-1.6
		c-0.1-0.1-0.3-0.2-0.4-0.3c-0.6-0.6-0.6-1.7,0-2.3l4.3-4.6c0.6-0.6,1.6-0.6,2.2,0c0.6,0.6,0.6,1.7,0,2.3l-1.3,1.4
		c0.4,0.8,0.5,1.8,0.4,2.6l2.2-2.4C33.7,133.9,33.7,131.5,32.2,130.1z"/>
	<path class="st1" d="M27.6,134.3l-1.5,1.6c0,0,0.3,0.2,0.4,0.3c0.6,0.6,0.6,1.7,0,2.3l-4.3,4.6c-0.6,0.6-1.6,0.6-2.2,0
		c-0.6-0.6-0.6-1.7,0-2.3l1.3-1.4c-0.4-0.8-0.1-1.4-0.4-2.6l-2.2,2.4c-1.4,1.5-1.4,3.8,0,5.3c1.4,1.5,3.6,1.5,5,0l4.3-4.6
		c1.4-1.5,1.4-3.8,0-5.3C27.8,134.5,27.6,134.3,27.6,134.3z"/>
</g>
<g>
	<title>10D91FEE-CD0F-41CA-BD51-7AD0C6DED2BC</title>
	<desc>Created with sketchtool.</desc>
</g>
<path class="st2" d="M26.5,146.1l-7.8,0c-0.8,0-1.4,0.6-1.4,1.4v1.2l-1.9,0c-0.8,0-1.4,0.6-1.4,1.4v4.9c0,0.8,0.6,1.4,1.4,1.4h1.4
	v2.3c0,0.1,0.1,0.2,0.1,0.2c0,0,0.1,0,0.1,0c0.1,0,0.1,0,0.2-0.1l2.2-2.5l3.8,0c0.8,0,1.4-0.6,1.4-1.4v0l1.2,1.3
	c0,0,0.1,0.1,0.2,0.1c0,0,0.1,0,0.1,0c0.1,0,0.1-0.1,0.1-0.2v-2.3h0.2c0.8,0,1.4-0.6,1.4-1.4v-4.9C27.9,146.7,27.3,146.1,26.5,146.1
	z M24.2,154.3v0.6c0,0.5-0.4,0.9-0.9,0.9l-3.9,0c-0.1,0-0.1,0-0.2,0.1l-1.9,2.1v-2c0-0.1-0.1-0.2-0.2-0.2h-1.6
	c-0.5,0-0.9-0.4-0.9-0.9v-4.9c0-0.5,0.4-0.9,0.9-0.9l2.1,0c0,0,0,0,0,0l5.8,0c0.5,0,0.9,0.4,0.9,0.9V154.3z M27.4,152.4L27.4,152.4
	c0,0.5-0.4,0.9-0.9,0.9h-0.5c-0.1,0-0.2,0.1-0.2,0.2v2l-1.1-1.3V150c0-0.8-0.6-1.4-1.4-1.4l-5.5,0v-1.2c0-0.5,0.4-0.9,0.9-0.9l7.8,0
	c0,0,0,0,0,0c0.5,0,0.9,0.4,0.9,0.9V152.4z"/>
<g>
	<title>D3531D64-97AE-40F1-A4B4-7ED17AD7764F</title>
	<desc>Created with sketchtool.</desc>
</g>
<g>
	<title>B01B0F12-90E1-483F-8BA3-6912103B70DD</title>
	<desc>Created with sketchtool.</desc>
	<g id="Page-1_4_">
		<g id="UI-Kit-module-8_4_" transform="translate(-931.000000, -560.000000)">
			<g transform="translate(931.000000, 560.000000)">
				<g id="dribble_1_">
					<path id="Shape_3_" class="st0" d="M36,105.3c-6.3,0-11.5,5.2-11.5,11.5c0,6.3,5.2,11.5,11.5,11.5c6.3,0,11.5-5.2,11.5-11.5
						C47.5,110.4,42.3,105.3,36,105.3z M43.8,110.3c1.4,1.7,2.3,3.9,2.3,6.3c-1.8-0.4-3.8-0.4-5.8-0.1c-0.5,0.1-1.1,0.2-1.6,0.4
						c-0.2-0.5-0.4-0.9-0.6-1.4c-0.2-0.5-0.4-0.9-0.6-1.4C40,113.1,42.6,111.8,43.8,110.3z M36,106.6c2.6,0,5.1,1,6.9,2.7
						c-0.7,1-2.7,2.4-5.9,3.6c-1.1-2.1-2.5-4-4-5.8C33.9,106.8,34.9,106.6,36,106.6z M31.6,107.6c1.6,1.7,3,3.6,4.1,5.7
						c-3.4,1.1-6.8,1.5-9.5,1.2C26.8,111.5,28.8,109,31.6,107.6z M25.8,116.8c0-0.3,0-0.6,0-0.9c0.6,0.1,1.3,0.1,1.9,0.1
						c2.6,0,5.6-0.5,8.5-1.5c0.4,0.9,0.8,1.8,1.2,2.8c-1.1,0.4-2.2,0.9-3.3,1.5c-2.5,1.5-4.4,3.4-5.1,5.3
						C27.1,122.3,25.8,119.7,25.8,116.8z M36,126.9c-2.2,0-4.2-0.7-5.8-1.8c0.5-1.7,2.2-3.6,4.7-5.1c0.9-0.5,1.9-1,3-1.4
						c0.8,2.5,1.3,5.1,1.4,7.8C38.3,126.7,37.2,126.9,36,126.9z M40.6,125.8c-0.2-2.6-0.7-5.2-1.5-7.6c2.2-0.6,4.6-0.8,6.9-0.2
						C45.7,121.4,43.6,124.3,40.6,125.8z"/>
				</g>
			</g>
		</g>
	</g>
</g>
<g>
	<title>95566742-670F-44B9-AA7D-74BD0CBEE631</title>
	<desc>Created with sketchtool.</desc>
	<g id="Page-1_3_">
		<g id="UI-Kit-module-8_3_" transform="translate(-887.000000, -560.000000)">
			<g transform="translate(887.000000, 560.000000)">
				<g id="facebook_2_">
					<path id="Shape_2_" class="st0" d="M14.4,128.3h-4c-0.7,0-1.2-0.5-1.2-1.1v-8.3H6.9c-0.7,0-1.2-0.5-1.2-1.1v-3.6
						c0-0.6,0.5-1.1,1.2-1.1h2.3v-1.8c0-1.8,0.6-3.3,1.7-4.3c1.1-1.1,2.7-1.7,4.6-1.7l3,0c0.7,0,1.2,0.5,1.2,1.1v3.3
						c0,0.6-0.5,1.1-1.2,1.1l-2,0c-0.6,0-0.8,0.1-0.8,0.2c-0.1,0.1-0.1,0.2-0.1,0.7v1.4h2.8c0.2,0,0.4,0,0.6,0.1
						c0.4,0.2,0.6,0.6,0.6,1l0,3.6c0,0.6-0.5,1.1-1.2,1.1h-2.8v8.3C15.6,127.8,15,128.3,14.4,128.3L14.4,128.3z M10.7,126.9h3.5
						v-8.7c0-0.4,0.4-0.7,0.8-0.7h3.2l0-3.1h-3.2c-0.4,0-0.8-0.3-0.8-0.7v-2c0-0.5,0.1-1.1,0.5-1.6c0.5-0.5,1.3-0.6,1.9-0.6l1.8,0
						v-2.8l-2.8,0c-3,0-4.8,1.8-4.8,4.7v2.4c0,0.4-0.4,0.7-0.8,0.7H7.2v3.1h2.7c0.4,0,0.8,0.3,0.8,0.7V126.9z"/>
				</g>
			</g>
		</g>
	</g>
</g>
<g>
	<title>A37B0BA6-3AA5-4E5D-9DDA-89038048205D</title>
	<desc>Created with sketchtool.</desc>
</g>
<g>
	<path class="st0" d="M99.8,43.6h-27c-0.7,0-1.2,0.5-1.2,1.2c0,0.6,0.5,1.2,1.2,1.2h27c0.7,0,1.2-0.5,1.2-1.2
		C101,44.1,100.5,43.6,99.8,43.6z"/>
	<path class="st0" d="M114.3,11.1c-0.7,0-1.2,0.5-1.2,1.2v22.6l-10.4-14.5c-0.5-0.6-1.5-0.6-1.9,0L89,36.8l-9.1-7.9
		c-0.4-0.4-1.1-0.4-1.6,0l-5.7,5c-0.5,0.4-0.5,1.2-0.1,1.7c0.4,0.5,1.2,0.5,1.7,0.1l5-4.3l9.3,8.1c0.5,0.4,1.3,0.4,1.7-0.2L101.8,23
		l11.4,15.9v4.7h-7.7c-0.7,0-1.2,0.5-1.2,1.2c0,0.6,0.5,1.2,1.2,1.2h8.8c0.7,0,1.2-0.5,1.2-1.2V12.3C115.5,11.6,115,11.1,114.3,11.1
		z"/>
	<path class="st0" d="M89.2,25.9c2.7,0,4.9-2.2,4.9-4.9c0-2.7-2.2-4.9-4.9-4.9c-2.7,0-4.9,2.2-4.9,4.9
		C84.3,23.7,86.5,25.9,89.2,25.9z M89.2,18.4c1.4,0,2.6,1.2,2.6,2.6c0,1.4-1.2,2.6-2.6,2.6c-1.4,0-2.6-1.2-2.6-2.6
		C86.6,19.6,87.8,18.4,89.2,18.4z"/>
	<path class="st0" d="M77.1,54.9h-1.9c-0.7,0-1.2,0.5-1.2,1.2c0,0.6,0.5,1.2,1.2,1.2h1.9c0.7,0,1.2-0.5,1.2-1.2
		C78.3,55.4,77.8,54.9,77.1,54.9z"/>
	<path class="st0" d="M84.2,54.9h-1.9c-0.7,0-1.2,0.5-1.2,1.2c0,0.6,0.5,1.2,1.2,1.2h1.9c0.7,0,1.2-0.5,1.2-1.2
		C85.4,55.4,84.8,54.9,84.2,54.9z"/>
	<path class="st0" d="M105.4,54.9h-1.9c-0.7,0-1.2,0.5-1.2,1.2c0,0.6,0.5,1.2,1.2,1.2h1.9c0.7,0,1.2-0.5,1.2-1.2
		C106.6,55.4,106.1,54.9,105.4,54.9z"/>
	<path class="st0" d="M119.6,54.9h-1.9c-0.7,0-1.2,0.5-1.2,1.2c0,0.6,0.5,1.2,1.2,1.2h1.9c0.7,0,1.2-0.5,1.2-1.2
		C120.7,55.4,120.2,54.9,119.6,54.9z"/>
	<path class="st0" d="M91.3,54.9h-1.9c-0.7,0-1.2,0.5-1.2,1.2c0,0.6,0.5,1.2,1.2,1.2h1.9c0.7,0,1.2-0.5,1.2-1.2
		C92.4,55.4,91.9,54.9,91.3,54.9z"/>
	<path class="st0" d="M112.5,54.9h-1.9c-0.7,0-1.2,0.5-1.2,1.2c0,0.6,0.5,1.2,1.2,1.2h1.9c0.7,0,1.2-0.5,1.2-1.2
		C113.7,55.4,113.1,54.9,112.5,54.9z"/>
	<path class="st0" d="M98.3,54.9h-1.9c-0.7,0-1.2,0.5-1.2,1.2c0,0.6,0.5,1.2,1.2,1.2h1.9c0.7,0,1.2-0.5,1.2-1.2
		C99.5,55.4,99,54.9,98.3,54.9z"/>
	<path class="st0" d="M69.1,47.1c-0.7,0-1.2,0.5-1.2,1.2v1.9c0,0.6,0.5,1.2,1.2,1.2c0.7,0,1.2-0.5,1.2-1.2v-1.9
		C70.3,47.7,69.7,47.1,69.1,47.1z"/>
	<path class="st0" d="M70.3,41.5c0-0.6-0.5-1.2-1.2-1.2c-0.7,0-1.2,0.5-1.2,1.2v1.9c0,0.6,0.5,1.2,1.2,1.2c0.7,0,1.2-0.5,1.2-1.2
		V41.5z"/>
	<path class="st0" d="M70.3,34.7c0-0.6-0.5-1.2-1.2-1.2c-0.7,0-1.2,0.5-1.2,1.2v1.9c0,0.6,0.5,1.2,1.2,1.2c0.7,0,1.2-0.5,1.2-1.2
		V34.7z"/>
	<path class="st0" d="M70.3,14.4c0-0.6-0.5-1.2-1.2-1.2c-0.7,0-1.2,0.5-1.2,1.2v1.9c0,0.6,0.5,1.2,1.2,1.2c0.7,0,1.2-0.5,1.2-1.2
		V14.4z"/>
	<path class="st0" d="M70.3,21.2c0-0.6-0.5-1.2-1.2-1.2c-0.7,0-1.2,0.5-1.2,1.2V23c0,0.6,0.5,1.2,1.2,1.2c0.7,0,1.2-0.5,1.2-1.2
		V21.2z"/>
	<path class="st0" d="M70.3,27.9c0-0.6-0.5-1.2-1.2-1.2c-0.7,0-1.2,0.5-1.2,1.2v1.9c0,0.6,0.5,1.2,1.2,1.2c0.7,0,1.2-0.5,1.2-1.2
		V27.9z"/>
	<path class="st0" d="M103.5,9.7h1.9c0.7,0,1.2-0.5,1.2-1.2c0-0.6-0.5-1.2-1.2-1.2h-1.9c-0.7,0-1.2,0.5-1.2,1.2
		C102.3,9.1,102.8,9.7,103.5,9.7z"/>
	<path class="st0" d="M89.3,9.7h1.9c0.7,0,1.2-0.5,1.2-1.2c0-0.6-0.5-1.2-1.2-1.2h-1.9c-0.7,0-1.2,0.5-1.2,1.2
		C88.2,9.1,88.7,9.7,89.3,9.7z"/>
	<path class="st0" d="M110.6,9.7h1.9c0.7,0,1.2-0.5,1.2-1.2c0-0.6-0.5-1.2-1.2-1.2h-1.9c-0.7,0-1.2,0.5-1.2,1.2
		C109.4,9.1,109.9,9.7,110.6,9.7z"/>
	<path class="st0" d="M96.4,9.7h1.9c0.7,0,1.2-0.5,1.2-1.2c0-0.6-0.5-1.2-1.2-1.2h-1.9c-0.7,0-1.2,0.5-1.2,1.2
		C95.2,9.1,95.8,9.7,96.4,9.7z"/>
	<path class="st0" d="M119.6,7.3h-1.9c-0.7,0-1.2,0.5-1.2,1.2c0,0.6,0.5,1.2,1.2,1.2h1.9c0.7,0,1.2-0.5,1.2-1.2
		C120.7,7.9,120.2,7.3,119.6,7.3z"/>
	<path class="st0" d="M82.3,9.7h1.9c0.7,0,1.2-0.5,1.2-1.2c0-0.6-0.5-1.2-1.2-1.2h-1.9c-0.7,0-1.2,0.5-1.2,1.2
		C81.1,9.1,81.6,9.7,82.3,9.7z"/>
	<path class="st0" d="M75.2,9.7h1.9c0.7,0,1.2-0.5,1.2-1.2c0-0.6-0.5-1.2-1.2-1.2h-1.9c-0.7,0-1.2,0.5-1.2,1.2
		C74,9.1,74.5,9.7,75.2,9.7z"/>
	<path class="st0" d="M126.8,41.5c0-0.6-0.5-1.2-1.2-1.2c-0.7,0-1.2,0.5-1.2,1.2v1.9c0,0.6,0.5,1.2,1.2,1.2c0.7,0,1.2-0.5,1.2-1.2
		V41.5z"/>
	<path class="st0" d="M126.8,34.7c0-0.6-0.5-1.2-1.2-1.2c-0.7,0-1.2,0.5-1.2,1.2v1.9c0,0.6,0.5,1.2,1.2,1.2c0.7,0,1.2-0.5,1.2-1.2
		V34.7z"/>
	<path class="st0" d="M126.8,27.9c0-0.6-0.5-1.2-1.2-1.2c-0.7,0-1.2,0.5-1.2,1.2v1.9c0,0.6,0.5,1.2,1.2,1.2c0.7,0,1.2-0.5,1.2-1.2
		V27.9z"/>
	<path class="st0" d="M125.7,47.1c-0.7,0-1.2,0.5-1.2,1.2v1.9c0,0.6,0.5,1.2,1.2,1.2c0.7,0,1.2-0.5,1.2-1.2v-1.9
		C126.8,47.7,126.3,47.1,125.7,47.1z"/>
	<path class="st0" d="M126.8,21.2c0-0.6-0.5-1.2-1.2-1.2c-0.7,0-1.2,0.5-1.2,1.2V23c0,0.6,0.5,1.2,1.2,1.2c0.7,0,1.2-0.5,1.2-1.2
		V21.2z"/>
	<path class="st0" d="M126.8,14.4c0-0.6-0.5-1.2-1.2-1.2c-0.7,0-1.2,0.5-1.2,1.2v1.9c0,0.6,0.5,1.2,1.2,1.2c0.7,0,1.2-0.5,1.2-1.2
		V14.4z"/>
	<path class="st0" d="M66.6,12.2h5c0.7,0,1.2-0.5,1.2-1.2V6c0-0.6-0.5-1.2-1.2-1.2h-5c-0.7,0-1.2,0.5-1.2,1.2v5
		C65.4,11.6,65.9,12.2,66.6,12.2z M67.8,7.2h2.7v2.7h-2.7V7.2z"/>
	<path class="st0" d="M123.1,12.2h5c0.7,0,1.2-0.5,1.2-1.2V6c0-0.6-0.5-1.2-1.2-1.2h-5c-0.7,0-1.2,0.5-1.2,1.2v5
		C122,11.6,122.5,12.2,123.1,12.2z M124.3,7.2h2.7v2.7h-2.7V7.2z"/>
	<path class="st0" d="M71.6,52.4h-5c-0.7,0-1.2,0.5-1.2,1.2v5c0,0.6,0.5,1.2,1.2,1.2h5c0.7,0,1.2-0.5,1.2-1.2v-5
		C72.8,52.9,72.3,52.4,71.6,52.4z M70.4,57.4h-2.7v-2.7h2.7V57.4z"/>
	<path class="st0" d="M128.4,52.4h-5c-0.7,0-1.2,0.5-1.2,1.2v5c0,0.6,0.5,1.2,1.2,1.2h5c0.7,0,1.2-0.5,1.2-1.2v-5
		C129.6,52.9,129.1,52.4,128.4,52.4z M127.2,57.4h-2.7v-2.7h2.7V57.4z"/>
</g>
<g>
	<title>7947E0A8-55C5-42AE-8898-4D1D3A79ED3C</title>
	<desc>Created with sketchtool.</desc>
	<g id="Page-1_6_">
		<g id="UI-Kit-module-8_6_" transform="translate(-984.000000, -560.000000)">
			<g transform="translate(984.000000, 560.000000)">
				<g id="instagram_1_">
					<path id="Shape_5_" class="st0" d="M65.3,105.3H54.7c-3.4,0-6.2,2.8-6.2,6.2V122c0,3.4,2.8,6.2,6.2,6.2h10.5
						c3.4,0,6.2-2.8,6.2-6.2v-10.5C71.5,108.1,68.7,105.3,65.3,105.3z M70.2,122c0,2.7-2.2,4.9-4.9,4.9H54.7c-2.7,0-4.9-2.2-4.9-4.9
						v-10.5c0-2.7,2.2-4.9,4.9-4.9h10.5c2.7,0,4.9,2.2,4.9,4.9V122z"/>
					<path class="st0" d="M59.5,111.3c-3.3,0-6,2.7-6,6s2.7,6,6,6s6-2.7,6-6S62.8,111.3,59.5,111.3z M59.5,122
						c-2.6,0-4.7-2.1-4.7-4.7c0-2.6,2.1-4.7,4.7-4.7c2.6,0,4.7,2.1,4.7,4.7C64.2,119.9,62.1,122,59.5,122z"/>
					<path class="st0" d="M65.5,108.3c-1.1,0-2,0.9-2,2c0,1.1,0.9,2,2,2s2-0.9,2-2S66.6,108.3,65.5,108.3z M65.5,110.8
						c-0.3,0-0.5-0.2-0.5-0.5c0-0.3,0.2-0.5,0.5-0.5c0.3,0,0.5,0.2,0.5,0.5C66,110.6,65.8,110.8,65.5,110.8z"/>
				</g>
			</g>
		</g>
	</g>
</g>
<g>
	<title>603D0A14-939E-4539-825B-11774AA96713</title>
	<desc>Created with sketchtool.</desc>
</g>
<g>
	<path class="st1" d="M12.4,139.7c0.8-1.1,1.3-2.5,1.3-4c0-3.7-3-6.8-6.8-6.8s-6.8,3-6.8,6.8c0,3.7,3,6.8,6.8,6.8
		c1.5,0,2.9-0.5,4-1.3l4.4,4.4l1.5-1.5C16.8,144.1,12.4,139.7,12.4,139.7z M6.9,140.4c-2.6,0-4.7-2.1-4.7-4.7c0-2.6,2.1-4.7,4.7-4.7
		s4.7,2.1,4.7,4.7C11.6,138.3,9.5,140.4,6.9,140.4z"/>
	<polygon class="st1" points="7.3,132.6 6.8,132.6 6.8,135.6 3.9,135.6 3.9,136 6.8,136 6.8,139 7.3,139 7.3,136 10.2,136 
		10.2,135.6 7.3,135.6 	"/>
</g>
<g>
	<title>4FA81565-A895-433F-8853-39E5C9C60484</title>
	<desc>Created with sketchtool.</desc>
</g>
<g>
	<path class="st0" d="M37.1,49.3V21H45l2.8,1.9c0.6,0.4,1.5,0,1.5-0.8V11.9c0-0.5-0.4-1-1-1H15.7c-0.5,0-1,0.4-1,1v10.2
		c0,0.7,0.9,1.2,1.5,0.8l2.8-1.9H27v3.1c0,0.5,0.4,1,1,1c0.5,0,1-0.4,1-1V20c0-0.5-0.4-1-1-1h-9.2c-0.2,0-0.4,0.1-0.5,0.2l-1.6,1
		v-7.5h30.7v7.5l-1.6-1c-0.2-0.1-0.3-0.2-0.5-0.2h-9.2c-0.5,0-1,0.4-1,1v29.6c0,0.2,0.1,0.4,0.2,0.5l1,1.6h-8.7l1-1.6
		c0.1-0.2,0.2-0.3,0.2-0.5V28.7c0-0.5-0.4-1-1-1c-0.5,0-1,0.4-1,1v20.6l-1.9,2.8c-0.4,0.6,0,1.5,0.8,1.5h12.2c0.7,0,1.2-0.9,0.8-1.5
		L37.1,49.3z"/>
	<path class="st0" d="M53,12.7h0.8c0.5,0,1-0.4,1-0.9c0-0.5-0.4-0.9-1-0.9H53c-0.5,0-1,0.4-1,0.9C52,12.3,52.5,12.7,53,12.7z"/>
	<path class="st0" d="M57.6,12.7h1.6c0.6,0,1-0.4,1-0.9c0-0.5-0.5-0.9-1-0.9h-1.6c-0.6,0-1,0.4-1,0.9C56.6,12.3,57,12.7,57.6,12.7z"
		/>
	<path class="st0" d="M63,12.7h0.8c0.5,0,1-0.4,1-0.9c0-0.5-0.4-0.9-1-0.9H63c-0.5,0-1,0.4-1,0.9C62,12.3,62.5,12.7,63,12.7z"/>
	<path class="st0" d="M53,22.7h0.8c0.5,0,1-0.4,1-0.9c0-0.5-0.4-0.9-1-0.9H53c-0.5,0-1,0.4-1,0.9C52,22.3,52.5,22.7,53,22.7z"/>
	<path class="st0" d="M57.6,22.7h1.6c0.6,0,1-0.4,1-0.9c0-0.5-0.5-0.9-1-0.9h-1.6c-0.6,0-1,0.4-1,0.9C56.6,22.3,57,22.7,57.6,22.7z"
		/>
	<path class="st0" d="M63.8,20.9H63c-0.5,0-1,0.4-1,0.9c0,0.5,0.4,0.9,1,0.9h0.8c0.5,0,1-0.4,1-0.9C64.8,21.3,64.3,20.9,63.8,20.9z"
		/>
	<path class="st0" d="M1.2,12.7H2c0.5,0,1-0.4,1-0.9c0-0.5-0.4-0.9-1-0.9H1.2c-0.5,0-1,0.4-1,0.9C0.2,12.3,0.7,12.7,1.2,12.7z"/>
	<path class="st0" d="M5.8,12.7h1.6c0.6,0,1-0.4,1-0.9c0-0.5-0.5-0.9-1-0.9H5.8c-0.6,0-1,0.4-1,0.9C4.8,12.3,5.2,12.7,5.8,12.7z"/>
	<path class="st0" d="M11.2,12.7H12c0.5,0,1-0.4,1-0.9c0-0.5-0.4-0.9-1-0.9h-0.8c-0.5,0-1,0.4-1,0.9C10.2,12.3,10.7,12.7,11.2,12.7z
		"/>
	<path class="st0" d="M3,21.8c0-0.5-0.4-0.9-1-0.9H1.2c-0.5,0-1,0.4-1,0.9c0,0.5,0.4,0.9,1,0.9H2C2.5,22.7,3,22.3,3,21.8z"/>
	<path class="st0" d="M5.8,22.7h1.6c0.6,0,1-0.4,1-0.9c0-0.5-0.5-0.9-1-0.9H5.8c-0.6,0-1,0.4-1,0.9C4.8,22.3,5.2,22.7,5.8,22.7z"/>
	<path class="st0" d="M11.2,22.7H12c0.5,0,1-0.4,1-0.9c0-0.5-0.4-0.9-1-0.9h-0.8c-0.5,0-1,0.4-1,0.9C10.2,22.3,10.7,22.7,11.2,22.7z
		"/>
	<path class="st0" d="M48.4,3.6c0.5,0,0.9-0.5,0.9-1V1c0-0.6-0.4-1-0.9-1c-0.5,0-0.9,0.5-0.9,1v1.6C47.5,3.2,47.9,3.6,48.4,3.6z"/>
	<path class="st0" d="M48.4,9.1c0.5,0,0.9-0.5,0.9-1V6.5c0-0.6-0.4-1-0.9-1c-0.5,0-0.9,0.5-0.9,1v1.6C47.5,8.6,47.9,9.1,48.4,9.1z"
		/>
	<path class="st0" d="M16.6,9.1c0.5,0,0.9-0.5,0.9-1V6.5c0-0.6-0.4-1-0.9-1c-0.5,0-0.9,0.5-0.9,1v1.6C15.7,8.6,16.1,9.1,16.6,9.1z"
		/>
	<path class="st0" d="M16.6,3.6c0.5,0,0.9-0.5,0.9-1V1c0-0.6-0.4-1-0.9-1c-0.5,0-0.9,0.5-0.9,1v1.6C15.7,3.2,16.1,3.6,16.6,3.6z"/>
	<path class="st0" d="M36.6,55.4c-0.5,0-0.9,0.5-0.9,1v1.6c0,0.6,0.4,1,0.9,1c0.5,0,0.9-0.5,0.9-1v-1.6
		C37.5,55.9,37.1,55.4,36.6,55.4z"/>
	<path class="st0" d="M36.6,60.9c-0.5,0-0.9,0.5-0.9,1v1.6c0,0.6,0.4,1,0.9,1c0.5,0,0.9-0.5,0.9-1v-1.6
		C37.5,61.3,37.1,60.9,36.6,60.9z"/>
	<path class="st0" d="M28.4,55.4c-0.5,0-0.9,0.5-0.9,1v1.6c0,0.6,0.4,1,0.9,1c0.5,0,0.9-0.5,0.9-1v-1.6
		C29.3,55.9,28.9,55.4,28.4,55.4z"/>
	<path class="st0" d="M28.4,60.9c-0.5,0-0.9,0.5-0.9,1v1.6c0,0.6,0.4,1,0.9,1c0.5,0,0.9-0.5,0.9-1v-1.6
		C29.3,61.3,28.9,60.9,28.4,60.9z"/>
	<path class="st0" d="M19.5,40.7c-0.2-0.2-0.4-0.3-0.7-0.3h-5.1c-0.4-2.8-2.9-5-5.8-5c-3.3,0-5.9,2.7-5.9,5.9s2.6,5.9,5.9,5.9
		c2.9,0,5.4-2.2,5.8-5h4.7l4.7,4.7c0.4,0.4,1,0.4,1.4-0.1c0.3-0.4,0.3-0.9,0-1.3L19.5,40.7z M8,45.4c-2.2,0-4-1.8-4-4s1.8-4,4-4
		c2.2,0,4,1.8,4,4S10.2,45.4,8,45.4z"/>
	<path class="st0" d="M57,26.8c-2.9,0-5.4,2.2-5.8,5.2h-4.6L42,23.2c-0.2-0.5-0.8-0.6-1.3-0.4c-0.4,0.3-0.6,0.9-0.4,1.3l5,9.3
		c0.2,0.3,0.5,0.5,0.8,0.5h5.1c0.4,2.9,2.9,5.2,5.8,5.2c3.3,0,5.9-2.7,5.9-6.1C62.9,29.6,60.3,26.8,57,26.8z M57,37.1
		c-2.2,0-4-1.9-4-4.2c0-2.3,1.8-4.2,4-4.2c2.2,0,4,1.9,4,4.2C61.1,35.3,59.3,37.1,57,37.1z"/>
	<path class="st0" d="M22.7,8.8c0.4,0.4,1,0.4,1.4-0.1c0.3-0.4,0.3-1-0.1-1.3L22.6,6h19.8L41,7.4c-0.3,0.4-0.4,0.9-0.1,1.3
		c0.4,0.4,1,0.5,1.4,0.1l3.1-3.1c0.4-0.4,0.4-1,0-1.4l-3.1-3.1c-0.4-0.4-1-0.4-1.4,0c-0.4,0.4-0.4,1,0,1.4L42.4,4H22.6L24,2.6
		c0.4-0.4,0.4-1,0-1.4c-0.4-0.4-1-0.4-1.4,0l-3.1,3.1c0,0-0.1,0.1-0.1,0.1c-0.3,0.4-0.2,0.9,0.1,1.3L22.7,8.8z"/>
</g>
<g>
	<title>44F4A648-BDBF-4F40-8D0E-3E20F1562E97</title>
	<desc>Created with sketchtool.</desc>
	<g id="Page-1_8_">
		<g id="UI-Kit-module-8_8_" transform="translate(-1241.000000, -574.000000)">
			<g transform="translate(1241.000000, 575.000000)">
				<g id="view_1_">
					<path id="Shape_7_" class="st0" d="M40,146.9c-2.7-2.7-7.3-2.7-10,0l-1.9,1.9l1.9,1.9c1.4,1.4,3.2,2.1,5,2.1s3.6-0.7,5-2.1
						l1.9-1.9L40,146.9z M39.7,150.3c-2.6,2.6-6.8,2.6-9.3,0l-1.6-1.6l1.5-1.5c2.6-2.6,6.8-2.6,9.3,0l1.6,1.5L39.7,150.3z"/>
					<path id="Path_2_" class="st0" d="M34.8,146.8c-1,0-1.8,0.8-1.8,1.8c0,0.1,0.1,0.2,0.3,0.2c0.2,0,0.3-0.1,0.3-0.3
						c0-0.7,0.6-1.3,1.3-1.3c0,0.1,0.1,0,0.1-0.1S34.9,146.8,34.8,146.8z"/>
					<path class="st0" d="M35,145.8c-1.7,0-2.9,1.3-2.9,2.9s1.3,2.9,2.9,2.9s2.9-1.3,2.9-2.9S36.7,145.8,35,145.8z M35,151.2
						c-1.4,0-2.5-1.1-2.5-2.5s1.1-2.5,2.5-2.5s2.5,1.1,2.5,2.5S36.4,151.2,35,151.2z"/>
				</g>
			</g>
		</g>
	</g>
</g>
<g>
	<title>2EC00B6F-368B-4C07-AE33-E53656FACCE1</title>
	<desc>Created with sketchtool.</desc>
</g>
<path class="st0" d="M92.5,113h-5v-3.7c0-1.6-0.5-2.8-1.4-3.5c-1.4-1.1-3.4-0.5-3.5-0.4c-0.3,0.1-0.4,0.3-0.4,0.6v4.2
	c0,3.3-3.7,4.4-3.9,4.5c-0.1,0-0.2,0.1-0.2,0.1c-0.2-0.3-0.6-0.4-0.9-0.4h-3.8c-0.7,0-1.3,0.6-1.3,1.3v11.4c0,0.7,0.6,1.3,1.3,1.3
	h3.7c0.4,0,0.8-0.2,1-0.6c0.6,0.6,1.4,0.9,2.3,0.9h10c2.2,0,3.7-1.2,3.9-3.4l1.3-8.9c0,0,0-0.1,0-0.1C95.8,114.6,94.3,113,92.5,113z
	 M77.2,127.1h-3.7v-11.4h3.7V127.1z M93.2,125.3C93.2,125.3,93.2,125.3,93.2,125.3c-0.2,1.5-1.1,2.2-2.7,2.2h-10c-1.1,0-2-1-2-2.1
	V116c0.1,0,0.2,0,0.2,0c0.2-0.1,4.8-1.4,4.8-5.8v-3.7c0.5-0.1,1.3-0.1,1.9,0.3c0.6,0.4,0.8,1.2,0.8,2.4v4.4c0,0.4,0.3,0.7,0.6,0.7
	h5.7c1.1,0,2,0.9,2,2.1L93.2,125.3z"/>
<g>
	<title>2EC00B6F-368B-4C07-AE33-E53656FACCE1</title>
	<desc>Created with sketchtool.</desc>
</g>
<path class="st0" d="M92.5,137h-5v-3.7c0-1.6-0.5-2.8-1.4-3.5c-1.4-1.1-3.4-0.5-3.5-0.4c-0.3,0.1-0.4,0.3-0.4,0.6v4.2
	c0,3.3-3.7,4.4-3.9,4.5c-0.1,0-0.2,0.1-0.2,0.1c-0.2-0.3-0.6-0.4-0.9-0.4h-3.8c-0.7,0-1.3,0.6-1.3,1.3v11.4c0,0.7,0.6,1.3,1.3,1.3
	h3.7c0.4,0,0.8-0.2,1-0.6c0.6,0.6,1.4,0.9,2.3,0.9h10c2.2,0,3.7-1.2,3.9-3.4l1.3-8.9c0,0,0-0.1,0-0.1C95.8,138.6,94.3,137,92.5,137z
	"/>
<g>
	<title>961385D9-4FF4-435D-8048-8DD930A471C9</title>
	<desc>Created with sketchtool.</desc>
</g>
<g>
	<path class="st2" d="M6.9,146.2c-3.8,0-6.8,3.1-6.8,6.8s3.1,6.8,6.8,6.8s6.8-3.1,6.8-6.8S10.7,146.2,6.9,146.2z M6.9,159.4
		c-3.5,0-6.4-2.9-6.4-6.4c0-3.5,2.9-6.4,6.4-6.4s6.4,2.9,6.4,6.4C13.3,156.5,10.5,159.4,6.9,159.4z"/>
	<path class="st2" d="M6.9,147.5c-0.1,0-0.2,0.1-0.2,0.2v5.2H3.3c-0.1,0-0.2,0.1-0.2,0.2s0.1,0.2,0.2,0.2h3.7c0.1,0,0.2-0.1,0.2-0.2
		v-5.5C7.2,147.6,7.1,147.5,6.9,147.5z"/>
</g>
<g>
	<title>6C1C4645-1605-4890-AEAF-BD0A7FD3DB11</title>
	<desc>Created with sketchtool.</desc>
</g>
<path class="st3" d="M117.9,65.4c-0.2-0.1-0.4-0.2-0.6-0.2l-22,2.9c-0.4,0-0.6,0.3-0.6,0.7V73v3v18.1c-1.3-1.6-3.4-2.6-5.7-2.6
	c-3.9,0-7.1,2.9-7.1,6.4s3.2,6.4,7.1,6.4c3.9,0,7.1-2.9,7.1-6.4c0-0.2,0-0.3,0-0.5c0,0,0-0.1,0-0.1V76.7l20.6-2.7v13
	c-1.3-1.6-3.4-2.6-5.7-2.6c-3.9,0-7.1,2.9-7.1,6.4s3.2,6.4,7.1,6.4c3.9,0,7-2.8,7.1-6.3c0,0,0,0,0,0V73.2v-3v-4.3
	C118.1,65.7,118,65.5,117.9,65.4z M89,102.9c-3.1,0-5.7-2.2-5.7-5c0-2.7,2.6-5,5.7-5c3.1,0,5.7,2.2,5.7,5
	C94.7,100.7,92.1,102.9,89,102.9z M111,95.8c-3.1,0-5.7-2.2-5.7-5c0-2.7,2.6-5,5.7-5c3.1,0,5.7,2.2,5.7,5
	C116.7,93.6,114.1,95.8,111,95.8z M116.7,70.2v2.4l-20.6,2.7V73v-3.7l20.6-2.7V70.2z"/>
<g>
	<title>B7306083-D2C4-48DF-88C6-17ED4D9594E0</title>
	<desc>Created with sketchtool.</desc>
</g>
<g>
	<path class="st3" d="M76.3,65.1H43.7c-1.9,0-3.4,1.5-3.4,3.4v32.6c0,1.9,1.5,3.4,3.4,3.4h32.6c1.9,0,3.4-1.5,3.4-3.4V68.5
		C79.7,66.6,78.2,65.1,76.3,65.1z M43.7,103.1c-0.3,0-0.5-0.1-0.8-0.1l10.3-10.5L65,103.1H43.7z M78.3,101.1c0,1.1-0.9,2-2,2H67
		L55.6,92.8l12.5-12.5l10.2,11.5V101.1z M78.3,89.8l-9.7-10.9l0,0l0,0c0,0,0,0,0,0c0,0,0,0-0.1,0s0,0-0.1,0c0,0,0,0-0.1,0
		c0,0,0,0-0.1,0c0,0,0,0-0.1,0c0,0,0,0-0.1,0c0,0,0,0-0.1,0s0,0-0.1,0s0,0-0.1,0s0,0-0.1,0s0,0-0.1,0c0,0,0,0-0.1,0c0,0,0,0-0.1,0
		c0,0,0,0-0.1,0s0,0,0,0l0,0l0,0l-13,13.1l-1-0.9c-0.3-0.2-0.7-0.2-0.9,0l-10.8,11c-0.2-0.3-0.3-0.6-0.3-1V68.5c0-1.1,0.9-2,2-2
		h32.6c1.1,0,2,0.9,2,2V89.8z"/>
	<circle class="st3" cx="52.6" cy="77.4" r="3.4"/>
	<path class="st3" d="M55.7,69H44.6c-0.2,0-0.3,0.2-0.3,0.3v11.1c0,0.2,0.2,0.3,0.3,0.3c0.2,0,0.3-0.2,0.3-0.3V69.7h10.8
		c0.2,0,0.3-0.2,0.3-0.3C56.1,69.2,55.9,69,55.7,69z"/>
</g>
<g>
	<title>0E9E0B83-FB14-4093-8031-C02233E2F4A5</title>
	<desc>Created with sketchtool.</desc>
</g>
<g>
	<path class="st3" d="M17.6,75.9c-0.4-0.3-1.3-0.3-1.4,0.8v16.2c0.1,1,1,1,1.4,0.8l11.3-8.1c0.3-0.2,0.7-0.9,0-1.5L17.6,75.9z
		 M18,91.1V78.4l8.8,6.4L18,91.1z"/>
	<path class="st3" d="M20.3,64.8c-11,0-20,9-20,20s9,20,20,20s20-9,20-20S31.3,64.8,20.3,64.8z M20.3,103.1
		C10.2,103.1,2,94.9,2,84.8s8.2-18.3,18.3-18.3s18.3,8.2,18.3,18.3S30.3,103.1,20.3,103.1z"/>
</g>
<g>
	<title>C8F833D7-3A94-4B59-81E5-8495367F592F</title>
	<desc>Created with sketchtool.</desc>
</g>
<g>
	<path class="st3" d="M157.4,73.9l-8.5-8.5l0,0c-0.2-0.2-0.4-0.3-0.6-0.3h-11.9c-2.3,0-4.2,1.9-4.2,4.2v1.8h-5.6
		c-2.3,0-4.2,1.9-4.2,4.2v24.8c0,2.3,1.9,4.2,4.2,4.2h17.1c2.3,0,4.2-1.9,4.2-4.2v-1.8h5.6c2.3,0,4.2-1.9,4.2-4.2V74.5
		C157.6,74.3,157.5,74.1,157.4,73.9z M149.1,68l5.7,5.7h-3.1c-1.4,0-2.5-1.1-2.5-2.5V68z M146.2,100.1c0,1.4-1.1,2.5-2.5,2.5h-17.1
		c-1.4,0-2.5-1.1-2.5-2.5V75.3c0-1.4,1.1-2.5,2.5-2.5h6.1c0.2,0.1,0.4,0.1,0.6,0h4.4v4.3c0,2.3,1.9,4.2,4.2,4.2h4.3V100.1z
		 M139.4,77.1V74l5.7,5.7h-3.1C140.5,79.7,139.4,78.5,139.4,77.1z M156,94.2c0,1.4-1.1,2.5-2.5,2.5h-5.6V80.5c0-0.2-0.1-0.4-0.2-0.6
		l-8.5-8.5l0,0c-0.2-0.2-0.4-0.3-0.6-0.3h-4.7v-1.8c0-1.4,1.1-2.5,2.5-2.5h11.1v4.3c0,2.3,1.9,4.2,4.2,4.2h4.3V94.2z"/>
	<path class="st3" d="M127.4,86.4h8.6c0.5,0,0.8-0.4,0.8-0.9c0-0.5-0.4-0.9-0.8-0.9h-8.6c-0.5,0-0.8,0.4-0.8,0.9
		C126.6,86,127,86.4,127.4,86.4z"/>
	<path class="st3" d="M126.6,91.6c0,0.5,0.4,0.9,0.8,0.9h15.2c0.5,0,0.8-0.4,0.8-0.9s-0.4-0.9-0.8-0.9h-15.2
		C127,90.7,126.6,91.1,126.6,91.6z"/>
	<path class="st3" d="M142.6,96.8h-15.2c-0.5,0-0.8,0.4-0.8,0.9c0,0.5,0.4,0.9,0.8,0.9h15.2c0.5,0,0.8-0.4,0.8-0.9
		C143.5,97.2,143.1,96.8,142.6,96.8z"/>
	<path class="st3" d="M149.2,85.5c0,0.5,0.4,0.9,0.8,0.9h2.5c0.5,0,0.8-0.4,0.8-0.9c0-0.5-0.4-0.9-0.8-0.9H150
		C149.6,84.6,149.2,85,149.2,85.5z"/>
	<path class="st3" d="M152.6,90.7H150c-0.5,0-0.8,0.4-0.8,0.9s0.4,0.9,0.8,0.9h2.5c0.5,0,0.8-0.4,0.8-0.9S153,90.7,152.6,90.7z"/>
</g>
<g>
	<title>552F7849-DA89-4711-A494-8766B434B0DC</title>
	<desc>Created with sketchtool.</desc>
</g>
<polygon class="st4" points="13.7,164.8 9.1,164.1 7,159.9 4.9,164.1 0.3,164.8 3.7,168 2.9,172.6 7,170.4 11.1,172.6 10.3,168 "/>
<g>
	<title>9CCCFD7E-BA79-49C0-AA00-5AA32E1C3146</title>
	<desc>Created with sketchtool.</desc>
</g>
<polygon class="st5" points="41.7,164.8 37.1,164.1 35,159.9 32.9,164.1 28.3,164.8 31.7,168 30.9,172.6 35,170.4 39.1,172.6 
	38.3,168 "/>
<g>
	<polygon class="st5" points="27.7,164.8 23.1,164.1 21,159.9 18.9,164.1 14.3,164.8 17.7,168 16.9,172.6 21,170.4 25.1,172.6 
		24.3,168 	"/>
	<polygon class="st4" points="27.7,164.8 23.1,164.1 21,159.9 21,170.4 25.1,172.6 24.3,168 	"/>
</g>
<g id="Page-1">
	<g id="UI-Kit-module-8" transform="translate(-482.000000, -538.000000)">
		<g transform="translate(482.000000, 538.000000)">
			<g id="contact">
				<path id="Path" class="st0" d="M125.6,122.4c-0.2-0.2-0.4-0.3-0.7-0.3c-0.3,0-0.5,0.1-0.7,0.3c-0.2,0.2-0.3,0.4-0.3,0.7
					c0,0.3,0.1,0.5,0.3,0.7c0.2,0.2,0.4,0.3,0.7,0.3c0.3,0,0.5-0.1,0.7-0.3c0.2-0.2,0.3-0.4,0.3-0.7
					C125.9,122.8,125.8,122.5,125.6,122.4z"/>
				<path id="Shape" class="st0" d="M139.6,105.8C139.6,105.8,139.6,105.8,139.6,105.8c-0.5-0.3-1-0.5-1.5-0.5h-24.4
					c-0.5,0-1,0.2-1.4,0.4c0,0-0.1,0-0.1,0.1c-0.7,0.5-1.1,1.2-1.1,2.1v13.5c0,1.4,1.2,2.6,2.6,2.6h6.4c0.5,0,0.9-0.4,0.9-0.9
					c0-0.5-0.4-0.9-0.9-0.9h-5.6l7.1-8.3l3.7,2.6c0.2,0.1,0.3,0.2,0.5,0.2c0.2,0,0.4-0.1,0.5-0.2l3.7-2.6l7.1,8.3h-8.9
					c-0.5,0-0.9,0.4-0.9,0.9c0,0.5,0.4,0.9,0.9,0.9h9.8c1.4,0,2.6-1.2,2.6-2.6v-13.5C140.7,107,140.3,106.3,139.6,105.8z
					 M112.9,121.6c0-0.1,0-0.1,0-0.2v-13.5c0-0.1,0-0.2,0-0.3l7.4,5.3L112.9,121.6z M125.9,114.9L115,107h21.8L125.9,114.9z
					 M139,121.4c0,0.1,0,0.1,0,0.2l-7.4-8.7l7.4-5.3c0,0.1,0,0.2,0,0.2V121.4z"/>
				<path class="st0" d="M134.8,142.8c-0.2,0-0.3,0-0.4,0.1h-0.5c-0.6,0-1,0.4-1,0.9c0,0.5,0.5,0.9,1,0.9h0.9c0.6,0,1-0.4,1-0.9
					v-0.1C135.8,143.2,135.3,142.8,134.8,142.8z"/>
				<path class="st0" d="M134.8,138.8c-0.5,0-1,0.4-1,1v1c0,0.5,0.4,1,1,1s1-0.4,1-1v-1C135.8,139.3,135.3,138.8,134.8,138.8z"/>
				<path class="st0" d="M130.8,142.8h-1c-0.5,0-1,0.4-1,1c0,0.5,0.4,1,1,1h1c0.5,0,1-0.4,1-1C131.8,143.2,131.4,142.8,130.8,142.8z
					"/>
				<path class="st0" d="M134.8,126c-0.5,0-1,0.4-1,1v1c0,0.5,0.4,1,1,1s1-0.4,1-1v-1C135.8,126.5,135.3,126,134.8,126z"/>
				<path class="st0" d="M134.8,131c-0.5,0-1,0.4-1,1v1c0,0.5,0.4,1,1,1s1-0.4,1-1v-1C135.8,131.4,135.3,131,134.8,131z"/>
				<path class="st0" d="M134.8,134.9c-0.5,0-1,0.4-1,1v1c0,0.5,0.4,1,1,1s1-0.4,1-1v-1C135.8,135.3,135.3,134.9,134.8,134.9z"/>
				<path class="st0" d="M103.2,110.2h-1c-0.5,0-1,0.4-1,1s0.4,1,1,1h1c0.5,0,1-0.4,1-1C104.2,110.7,103.7,110.2,103.2,110.2z"/>
				<path class="st0" d="M107.2,110.2h-1c-0.5,0-1,0.4-1,1s0.4,1,1,1h1c0.5,0,1-0.4,1-1S107.7,110.2,107.2,110.2z"/>
				<path class="st0" d="M102.2,113.2c-0.5,0-1,0.4-1,1v1c0,0.5,0.4,1,1,1s1-0.4,1-1v-1C103.2,113.6,102.8,113.2,102.2,113.2z"/>
				<path class="st0" d="M102.2,117.1c-0.5,0-1,0.4-1,1v1c0,0.5,0.4,1,1,1s1-0.4,1-1v-1C103.2,117.6,102.8,117.1,102.2,117.1z"/>
				<path class="st0" d="M105.9,140.1c-0.2-0.2-0.4-0.3-0.7-0.3c-0.3,0-0.5,0.1-0.7,0.3c-0.2,0.2-0.3,0.4-0.3,0.7
					c0,0.3,0.1,0.5,0.3,0.7c0.2,0.2,0.4,0.3,0.7,0.3s0.5-0.1,0.7-0.3c0.2-0.2,0.3-0.4,0.3-0.7C106.2,140.6,106.1,140.3,105.9,140.1z
					"/>
				<path class="st0" d="M123,141.5l-4.5-4.5c-1.3-1.3-3.4-1.3-4.7,0l-0.3,0.3c-0.4,0.4-1.1,0.4-1.5,0l-3.2-3.2
					c-0.2-0.2-0.3-0.5-0.3-0.7s0.1-0.5,0.3-0.7l0.3-0.3c1.3-1.3,1.3-3.4,0-4.7l-4.5-4.5c-1.3-1.3-3.4-1.3-4.7,0l-1.1,1.1
					c-3.3,3.3-3.3,8.6,0,11.8l2.9,2.9c0.3,0.3,0.9,0.3,1.2,0c0.3-0.3,0.3-0.9,0-1.2l-2.9-2.9c-2.6-2.6-2.6-6.8,0-9.4l1.1-1.1
					c0.6-0.6,1.6-0.6,2.3,0l4.5,4.5c0.6,0.6,0.6,1.6,0,2.3l-0.3,0.3c-0.1,0.1-0.2,0.2-0.3,0.3l-3.6-3.6c-0.3-0.3-0.9-0.3-1.2,0
					c-0.3,0.3-0.3,0.9,0,1.2l4.3,4.3c0.1,0.6,0.3,1.2,0.8,1.6l3.2,3.2c1.1,1.1,2.8,1.1,3.9,0l0.3-0.3c0.6-0.6,1.6-0.6,2.3,0l4.5,4.5
					c0.3,0.3,0.5,0.7,0.5,1.1s-0.2,0.8-0.5,1.1l-0.6,0.6l-4.1-4.1c-0.3-0.3-0.9-0.3-1.2,0c-0.3,0.3-0.3,0.9,0,1.2l4,4
					c-2.6,1.9-6.3,1.7-8.6-0.7l-2.2-2.2c-0.3-0.3-0.9-0.3-1.2,0c-0.3,0.3-0.3,0.9,0,1.2l2.2,2.2c1.6,1.6,3.8,2.5,5.9,2.5
					c2.1,0,4.3-0.8,5.9-2.4l1.1-1.1c0.6-0.6,1-1.5,1-2.3S123.6,142.1,123,141.5z"/>
			</g>
		</g>
	</g>
</g>
</svg>
